<?xml version="1.0" encoding="iso-8859-1"?>
<!-- Generator: Adobe Illustrator 19.0.0, SVG Export Plug-In . SVG Version: 6.00 Build 0)  -->
<svg xmlns="http://www.w3.org/2000/svg" xmlns:xlink="http://www.w3.org/1999/xlink" version="1.1" id="Layer_1" x="0px" y="0px" viewBox="0 0 512 512" style="enable-background:new 0 0 512 512;" xml:space="preserve" width="512px" height="512px">
<g>
	<g>
		<path d="M503.14,469.564h-12.229c1.305-1.842,2.483-3.786,3.477-5.85c6.907-14.352,10.197-30.427,9.513-46.49    c-2.184-51.264-44.105-92.233-95.437-93.271c-10.529-0.213-20.812,1.221-30.694,4.267L300.001,37.79    c-2.093-7.82-8.939-13.073-17.036-13.073c-8.095,0-14.94,5.254-17.034,13.073l-24.268,90.626    c-24.017-36.761-65.139-59.538-110.114-59.538C59.013,68.878,0,127.891,0,200.428c0,69.56,54.271,126.673,122.694,131.245v137.891    H33.596c-4.893,0-8.86,3.967-8.86,8.86c0,4.893,3.967,8.86,8.86,8.86H503.14c4.894,0,8.86-3.967,8.86-8.86    C512,473.531,508.034,469.564,503.14,469.564z M168.435,229.427c-2.8-4.012-8.323-4.995-12.335-2.194l-15.687,10.95v-15.114    c0-4.893-3.967-8.86-8.86-8.86s-8.86,3.967-8.86,8.86v42.996l-31.716-21.361c-4.059-2.734-9.565-1.66-12.299,2.399    c-2.734,4.059-1.66,9.565,2.399,12.299l41.615,28.029v26.488C64.05,309.382,17.72,260.214,17.72,200.428    c0-62.766,51.064-113.83,113.83-113.83c44.691,0,84.988,25.989,103.518,66.452l-37.512,140.092    c-16.936,12.097-36.483,19.197-57.142,20.773V282.73c0-0.014,0-0.028,0-0.043V259.79l25.828-18.028    C170.253,238.961,171.237,233.438,168.435,229.427z M274.107,469.564H140.413V331.662c17.768-1.172,34.848-5.864,50.533-13.839    l-8.996,33.596c-1.429,5.338-0.32,10.914,3.045,15.298c3.365,4.384,8.464,6.898,13.99,6.898h75.121V469.564z M282.966,248.123    c-4.894,0-8.86,3.967-8.86,8.86v98.914h-75.011L282.966,42.68l83.871,313.216h-75.011v-98.914    C291.825,252.09,287.86,248.123,282.966,248.123z M291.825,469.564v-95.949h29.66c-8.169,14.517-12.562,31.016-12.562,47.857    c-0.001,14.724,3.201,28.877,9.517,42.065c1.019,2.13,2.234,4.133,3.582,6.027H291.825z M478.422,456.03    c-3.957,8.221-12.581,13.534-21.973,13.534h-99.977v0c-9.416,0-18.07-5.369-22.049-13.679c-5.162-10.781-7.78-22.359-7.78-34.411    c0-17.277,5.643-34.112,15.949-47.857h24.356c5.526,0,10.625-2.514,13.989-6.898c3.365-4.384,4.475-9.96,3.047-15.299    l-1.621-6.054c8.272-2.625,16.897-3.879,25.744-3.696c42.004,0.849,76.305,34.369,78.091,76.309    C486.764,431.325,484.15,444.128,478.422,456.03z" fill="#FFFFFF"/>
	</g>
</g>
<g>
	<g>
		<circle cx="416.315" cy="442.988" r="8.86" fill="#FFFFFF"/>
	</g>
</g>
<g>
	<g>
		<circle cx="364.255" cy="427.041" r="8.86" fill="#FFFFFF"/>
	</g>
</g>
<g>
	<g>
		<circle cx="389.735" cy="384.514" r="8.86" fill="#FFFFFF"/>
	</g>
</g>
<g>
	<g>
		<circle cx="439.952" cy="370.338" r="8.86" fill="#FFFFFF"/>
	</g>
</g>
<g>
	<g>
		<circle cx="457.069" cy="409.321" r="8.86" fill="#FFFFFF"/>
	</g>
</g>
<g>
</g>
<g>
</g>
<g>
</g>
<g>
</g>
<g>
</g>
<g>
</g>
<g>
</g>
<g>
</g>
<g>
</g>
<g>
</g>
<g>
</g>
<g>
</g>
<g>
</g>
<g>
</g>
<g>
</g>
</svg>
