<?xml version="1.0" encoding="iso-8859-1"?>
<!-- Generator: Adobe Illustrator 19.0.0, SVG Export Plug-In . SVG Version: 6.00 Build 0)  -->
<svg xmlns="http://www.w3.org/2000/svg" xmlns:xlink="http://www.w3.org/1999/xlink" version="1.1" id="Layer_1" x="0px" y="0px" viewBox="0 0 511.984 511.984" style="enable-background:new 0 0 511.984 511.984;" xml:space="preserve" width="512px" height="512px">
<g>
	<g>
		<path d="M405.328,490.641h-10.688V21.335c5.906,0,10.688-4.781,10.688-10.671C405.328,4.773,400.547,0,394.641,0h-10.656H127.992    h-10.664c-5.89,0-10.671,4.773-10.671,10.664c0,5.89,4.781,10.671,10.671,10.671v469.306h-10.671    c-5.891,0-10.664,4.78-10.664,10.687c0,5.875,4.773,10.656,10.664,10.656h21.335h255.992h21.344    c5.875,0,10.655-4.781,10.655-10.656C415.984,495.422,411.203,490.641,405.328,490.641z M373.328,490.641H266.653v-10.656    c0-5.89-4.773-10.655-10.664-10.655c-5.89,0-10.664,4.766-10.664,10.655v10.656H138.656V21.335h234.672V490.641z" fill="#FFFFFF"/>
	</g>
</g>
<g>
	<g>
		<path d="M351.986,426.643H159.992c-5.89,0-10.664,4.78-10.664,10.687c0,5.875,4.773,10.656,10.664,10.656h191.994    c5.891,0,10.656-4.781,10.656-10.656C362.641,431.424,357.877,426.643,351.986,426.643z" fill="#FFFFFF"/>
	</g>
</g>
<g>
	<g>
		<path d="M351.986,383.988H159.992c-5.89,0-10.664,4.781-10.664,10.656c0,5.906,4.773,10.688,10.664,10.688h191.994    c5.891,0,10.656-4.781,10.656-10.688C362.641,388.769,357.877,383.988,351.986,383.988z" fill="#FFFFFF"/>
	</g>
</g>
<g>
	<g>
		<path d="M351.986,341.334H159.992c-5.89,0-10.664,4.766-10.664,10.655c0,5.891,4.773,10.656,10.664,10.656h191.994    c5.891,0,10.656-4.766,10.656-10.656S357.877,341.334,351.986,341.334z" fill="#FFFFFF"/>
	</g>
</g>
<g>
	<g>
		<path d="M351.986,298.647H159.992c-5.89,0-10.664,4.78-10.664,10.687c0,5.875,4.773,10.656,10.664,10.656h191.994    c5.891,0,10.656-4.781,10.656-10.656C362.641,303.428,357.877,298.647,351.986,298.647z" fill="#FFFFFF"/>
	</g>
</g>
<g>
	<g>
		<path d="M351.986,255.992H159.992c-5.89,0-10.664,4.773-10.664,10.664c0,5.898,4.773,10.68,10.664,10.68h191.994    c5.891,0,10.656-4.781,10.656-10.68C362.641,260.765,357.877,255.992,351.986,255.992z" fill="#FFFFFF"/>
	</g>
</g>
<g>
	<g>
		<path d="M351.986,213.329H159.992c-5.89,0-10.664,4.773-10.664,10.664c0,5.891,4.773,10.664,10.664,10.664h191.994    c5.891,0,10.656-4.773,10.656-10.664C362.641,218.103,357.877,213.329,351.986,213.329z" fill="#FFFFFF"/>
	</g>
</g>
<g>
	<g>
		<path d="M351.986,170.659H159.992c-5.89,0-10.664,4.781-10.664,10.671s4.773,10.664,10.664,10.664h191.994    c5.891,0,10.656-4.773,10.656-10.664S357.877,170.659,351.986,170.659z" fill="#FFFFFF"/>
	</g>
</g>
<g>
	<g>
		<path d="M351.986,127.996H159.992c-5.89,0-10.664,4.773-10.664,10.664c0,5.89,4.773,10.671,10.664,10.671h191.994    c5.891,0,10.656-4.781,10.656-10.671C362.641,132.769,357.877,127.996,351.986,127.996z" fill="#FFFFFF"/>
	</g>
</g>
<g>
	<g>
		<path d="M351.986,85.333H159.992c-5.89,0-10.664,4.773-10.664,10.664s4.773,10.664,10.664,10.664h191.994    c5.891,0,10.656-4.773,10.656-10.664C362.641,90.107,357.877,85.333,351.986,85.333z" fill="#FFFFFF"/>
	</g>
</g>
<g>
	<g>
		<path d="M351.986,42.663H159.992c-5.89,0-10.664,4.781-10.664,10.671c0,5.891,4.773,10.664,10.664,10.664h191.994    c5.891,0,10.656-4.773,10.656-10.664C362.641,47.444,357.877,42.663,351.986,42.663z" fill="#FFFFFF"/>
	</g>
</g>
<g>
	<g>
		<path d="M491.576,369.285c-9.062-34.092-19.218-49.295-32.937-49.295c-13.719,0-23.875,15.203-32.937,49.295    c-6,22.609-9.719,47.39-9.719,57.358c0,19.843,13.625,36.577,31.999,41.327v33.357c0,5.875,4.781,10.656,10.656,10.656    c5.906,0,10.688-4.781,10.688-10.656V467.97c18.375-4.749,31.999-21.484,31.999-41.327    C501.325,416.674,497.591,391.894,491.576,369.285z M469.327,445.111v-7.781c0-5.906-4.781-10.687-10.688-10.687    c-5.875,0-10.656,4.78-10.656,10.687v7.781c-6.375-3.688-10.656-10.578-10.656-18.468c0-6.531,2.688-26.499,7.75-46.999    c5.812-23.468,10.938-32.998,13.562-36.654c2.625,3.656,7.781,13.187,13.578,36.654c5.078,20.5,7.765,40.468,7.765,46.999    C479.982,434.533,475.685,441.424,469.327,445.111z" fill="#FFFFFF"/>
	</g>
</g>
<g>
	<g>
		<path d="M86.268,369.285c-9.062-34.092-19.218-49.295-32.937-49.295s-23.874,15.203-32.937,49.295    c-6.007,22.609-9.734,47.39-9.734,57.358c0,19.843,13.617,36.577,31.999,41.327v33.357c0,5.875,4.781,10.656,10.671,10.656    c5.891,0,10.664-4.781,10.664-10.656V467.97c18.383-4.749,32-21.484,32-41.327C95.993,416.674,92.276,391.894,86.268,369.285z     M63.994,445.111v-7.781c0-5.906-4.773-10.687-10.664-10.687c-5.89,0-10.671,4.78-10.671,10.687v7.781    c-6.367-3.688-10.664-10.578-10.664-18.468c0-6.531,2.695-26.499,7.766-46.999c5.797-23.468,10.945-32.998,13.57-36.654    c2.625,3.656,7.766,13.187,13.57,36.654c5.062,20.5,7.758,40.468,7.758,46.999C74.659,434.533,70.362,441.424,63.994,445.111z" fill="#FFFFFF"/>
	</g>
</g>
<g>
</g>
<g>
</g>
<g>
</g>
<g>
</g>
<g>
</g>
<g>
</g>
<g>
</g>
<g>
</g>
<g>
</g>
<g>
</g>
<g>
</g>
<g>
</g>
<g>
</g>
<g>
</g>
<g>
</g>
</svg>
